<svg viewBox="0 0 76 22" fill="none" xmlns="http://www.w3.org/2000/svg">
<path d="M23.0183 22H10.1629L7.16604 3.72545V22H0V0H12.7256L15.8523 18.01V0H23.0183V22Z" fill="black"/>
<path d="M24.1875 0H39.472V5.27957H30.9272V8.21245H38.6843V13.492H30.9272V16.7185H39.472V21.9981H24.1875V0Z" fill="black"/>
<path d="M49.7038 12.7595L48.5053 21.999H40.5234L43.5958 10.6182L40.785 0H48.6167L49.7038 8.507L50.7909 0H58.6226L55.8118 10.6182L58.8842 21.999H50.9024L49.7029 12.7595H49.7038Z" fill="black"/>
<path d="M59.4688 0H75.2794V5.27957H71.5752V21.999H63.1738V5.28054H59.4697V0H59.4688Z" fill="black"/>
</svg>
